<svg width="360px" viewBox="0 0 124 32" xmlns="http://www.w3.org/2000/svg">
<g transform="translate(44 7)" fill="#eceff4" data-v-29081953="">
<path d="m9.6 15.4-3.01-5.56 2.59-5.11h-3.13l-1.67 3.99h-0.81v-3.99h-2.8v10.67h2.8v-4.21h0.81l1.93 4.21zm5.14-2.8c-0.07 0.55-0.26 0.92-1.01 0.92-0.61 0-0.92-0.4-0.92-1.1v-0.6h4.49v-1.8c0-2.31-1.2-3.34-3.55-3.34-2.44 0-3.61 1.34-3.61 3.3v2.1c0 2.41 1.17 3.49 3.61 3.49 2.49 0 3.4-1.07 3.48-2.97zm-0.96-3.92c0.61 0 0.96 0.29 0.96 1.06v0.37h-1.93v-0.32c0-0.8 0.31-1.11 0.97-1.11zm6.55 6.54c-0.31 0.43-0.56 0.5-1.21 0.5-0.4 0-0.53-0.04-0.75-0.08v2.45c0.5 0.12 0.81 0.15 1.37 0.15 2.13 0 3.39-0.96 4.23-4.34l1.75-7.05h-2.97l-0.78 5.46-1.14-5.46h-3.01zm6.23-10.63v10.81h2.56l0.11-0.49c0.35 0.36 0.88 0.66 1.79 0.66 1.39 0 2.72-1.12 2.72-3.31v-2.14c0-2.27-1.01-3.44-2.72-3.44-0.72 0-1.3 0.17-1.75 0.53v-2.62zm2.71 5.49c0-0.78 0.26-1.02 0.87-1.02 0.62 0 0.87 0.24 0.87 1.02v2.09c0 0.74-0.29 1.02-0.87 1.02-0.54 0-0.87-0.27-0.87-1.01zm8.32 0c0-0.78 0.25-1.02 0.87-1.02 0.61 0 0.87 0.24 0.87 1.02v2.09c0 0.78-0.26 1.02-0.87 1.02-0.62 0-0.87-0.24-0.87-1.02zm0.87-3.4c-2.44 0-3.6 1.17-3.6 3.44v2c0 2.27 1.16 3.45 3.6 3.45 2.43 0 3.6-1.18 3.6-3.45v-2c0-2.27-1.17-3.44-3.6-3.44zm4.86 0.17v8.55h2.71v-4.23c0-1.34 0.73-1.68 1.47-1.68 0.23 0 0.45 0.03 0.66 0.07v-2.81c-0.13-0.02-0.25-0.03-0.38-0.03-0.78 0-1.54 0.36-1.93 0.94l-0.18-0.81zm8.33 8.72c0.86 0 1.51-0.24 1.97-0.76l0.14 0.59h2.37v-10.81h-2.72v2.52c-0.38-0.28-0.88-0.43-1.57-0.43-1.58 0-2.91 1.12-2.91 3.3v2.14c0 2.27 1.01 3.45 2.72 3.45zm1.75-3.4c0 0.78-0.26 1.02-0.87 1.02-0.62 0-0.87-0.24-0.87-1.02v-2.09c0-0.74 0.29-1.02 0.87-1.02 0.54 0 0.87 0.26 0.87 1.01zm6.84-5.32h-2.71v8.55h2.71zm0-3.24h-2.71v2.41h2.71zm5.1 6.41c-1.07-0.14-1.16-0.4-1.16-0.74 0-0.38 0.26-0.61 0.74-0.61 0.61 0 0.88 0.36 0.88 0.92h2.49c0-1.88-1.06-2.91-3.29-2.91-1.97 0-3.41 0.88-3.41 2.71 0 1.81 1.06 2.5 3.13 2.73 0.98 0.12 1.04 0.4 1.04 0.8 0 0.39-0.28 0.66-0.76 0.66-0.64 0-0.96-0.28-1.01-0.92h-2.59c0 1.72 1.07 2.91 3.42 2.91 2.16 0 3.6-0.94 3.6-2.83 0-1.86-1.44-2.51-3.08-2.72zm7.82 3.08c-0.67 0-0.88-0.28-0.88-1.1v-2.23h1.4v-2.36h-1.4v-1.94h-2.78v6.43c0 2.46 0.71 3.67 2.98 3.67 0.5 0 1.01-0.06 1.19-0.1v-2.41c-0.13 0.03-0.34 0.04-0.51 0.04z"/>
</g>
<g transform="scale(.062) translate(100)" fill="#88C0D0">
<path d="m512 159.99v224.02c0 17.66-14.329 31.991-32.004 31.991h-447.99c-17.674 0-32.004-14.323-32.004-31.991v-224.02c0-17.66 14.329-31.991 32.004-31.991h208v-32h32v32h208c17.674 0 32.004 14.323 32.004 31.991zm-480 216a7.997 7.997 0 0 0 8.002 8.005h432a8.005 8.005 0 0 0 8.002-8.005v-207.99a7.997 7.997 0 0 0-8.002-8.005h-432a8.005 8.005 0 0 0-8.002 8.005v207.99zm96-87.995v-32h-64v32h64zm224-64v-32h-32v32h32zm-64 0v-32h-32v32h32zm-128 0v-32h-32v32h32zm64 0v-32h-32v32h32zm-128 0v-32h-32v32h32zm160 64v-32h-32v32h32zm-64 0v-32h-32v32h32zm128 0v-32h-32v32h32zm64 0v-32h-32v32h32zm64 64v-32h-32v32h32zm0-160v96h-32v-64h-32v-32h64zm-64 160v-32h-256v32h256zm-288 0v-32h-32v32h32z"/>
</g>
</svg>
